<mxfile host="Electron" modified="2025-03-28T21:30:42.938Z" agent="Mozilla/5.0 (Windows NT 10.0; Win64; x64) AppleWebKit/537.36 (KHTML, like Gecko) draw.io/21.6.8 Chrome/114.0.5735.289 Electron/25.5.0 Safari/537.36" etag="e8lecQQaORNCCmj408aC" version="21.6.8" type="device">
  <diagram name="Page-1" id="heuBujQ8rneq9T9cYGzG">
    <mxGraphModel dx="2277" dy="1221" grid="1" gridSize="10" guides="1" tooltips="1" connect="1" arrows="1" fold="1" page="0" pageScale="1" pageWidth="827" pageHeight="1169" math="0" shadow="0">
      <root>
        <mxCell id="0" />
        <mxCell id="1" parent="0" />
        <mxCell id="9hzGDvgMQgs1guY_c0qF-1" value="&lt;h1&gt;&lt;span style=&quot;font-size: 40px;&quot;&gt;Modelization Diagram&lt;/span&gt;&lt;/h1&gt;" style="text;strokeColor=none;align=center;fillColor=none;html=1;verticalAlign=middle;whiteSpace=wrap;rounded=0;fontSize=16;fontStyle=3;fontFamily=Helvetica;" parent="1" vertex="1">
          <mxGeometry x="-365" y="-350" width="280" height="120" as="geometry" />
        </mxCell>
        <mxCell id="NAwW4b3B6V8KvW6h2unZ-3" value="Abstract Factory" style="rounded=1;whiteSpace=wrap;html=1;fontSize=16;" parent="1" vertex="1">
          <mxGeometry x="-270" y="20" width="140" height="50" as="geometry" />
        </mxCell>
        <mxCell id="NAwW4b3B6V8KvW6h2unZ-8" value="ClothingFactory&lt;br&gt;" style="rounded=1;whiteSpace=wrap;html=1;fontSize=16;" parent="1" vertex="1">
          <mxGeometry x="-260" y="140" width="120" height="60" as="geometry" />
        </mxCell>
        <mxCell id="NAwW4b3B6V8KvW6h2unZ-9" value="FurnitureFactory" style="rounded=1;whiteSpace=wrap;html=1;fontSize=16;" parent="1" vertex="1">
          <mxGeometry x="-480" y="150" width="140" height="60" as="geometry" />
        </mxCell>
        <mxCell id="NAwW4b3B6V8KvW6h2unZ-10" value="ElectronicFactory" style="rounded=1;whiteSpace=wrap;html=1;fontSize=16;" parent="1" vertex="1">
          <mxGeometry x="-100" y="150" width="140" height="60" as="geometry" />
        </mxCell>
        <mxCell id="NAwW4b3B6V8KvW6h2unZ-29" value="&lt;font style=&quot;font-size: 22px;&quot;&gt;&lt;i&gt;&lt;b&gt;Abstract Factory&lt;/b&gt;&lt;/i&gt;&lt;/font&gt;" style="text;html=1;strokeColor=none;fillColor=none;align=center;verticalAlign=middle;whiteSpace=wrap;rounded=0;fontSize=16;" parent="1" vertex="1">
          <mxGeometry x="-390" y="-40" width="220" height="30" as="geometry" />
        </mxCell>
        <mxCell id="NAwW4b3B6V8KvW6h2unZ-30" value="" style="group" parent="1" vertex="1" connectable="0">
          <mxGeometry x="-470" y="300" width="490" height="395" as="geometry" />
        </mxCell>
        <mxCell id="9hzGDvgMQgs1guY_c0qF-8" value="Engineer" style="ellipse;whiteSpace=wrap;html=1;fontSize=16;" parent="NAwW4b3B6V8KvW6h2unZ-30" vertex="1">
          <mxGeometry x="195" y="335" width="90" height="60" as="geometry" />
        </mxCell>
        <mxCell id="NAwW4b3B6V8KvW6h2unZ-2" value="IBuilder" style="rounded=1;whiteSpace=wrap;html=1;fontSize=16;" parent="NAwW4b3B6V8KvW6h2unZ-30" vertex="1">
          <mxGeometry x="195" y="220" width="90" height="40" as="geometry" />
        </mxCell>
        <mxCell id="NAwW4b3B6V8KvW6h2unZ-4" value="ClothingBuilder" style="rounded=0;whiteSpace=wrap;html=1;fontSize=16;" parent="NAwW4b3B6V8KvW6h2unZ-30" vertex="1">
          <mxGeometry x="180" y="90" width="120" height="60" as="geometry" />
        </mxCell>
        <mxCell id="NAwW4b3B6V8KvW6h2unZ-5" value="ElectronicBuilder" style="rounded=0;whiteSpace=wrap;html=1;fontSize=16;" parent="NAwW4b3B6V8KvW6h2unZ-30" vertex="1">
          <mxGeometry x="360" y="90" width="130" height="60" as="geometry" />
        </mxCell>
        <mxCell id="NAwW4b3B6V8KvW6h2unZ-6" value="FurnitureBuilder" style="rounded=0;whiteSpace=wrap;html=1;fontSize=16;" parent="NAwW4b3B6V8KvW6h2unZ-30" vertex="1">
          <mxGeometry y="90" width="120" height="60" as="geometry" />
        </mxCell>
        <mxCell id="NAwW4b3B6V8KvW6h2unZ-7" value="Items" style="rounded=1;whiteSpace=wrap;html=1;fontSize=16;" parent="NAwW4b3B6V8KvW6h2unZ-30" vertex="1">
          <mxGeometry x="385" y="345" width="80" height="40" as="geometry" />
        </mxCell>
        <mxCell id="NAwW4b3B6V8KvW6h2unZ-22" value="" style="endArrow=diamondThin;endFill=1;endSize=24;html=1;rounded=0;fontSize=12;curved=1;exitX=0.5;exitY=0;exitDx=0;exitDy=0;entryX=0.5;entryY=1;entryDx=0;entryDy=0;" parent="NAwW4b3B6V8KvW6h2unZ-30" source="9hzGDvgMQgs1guY_c0qF-8" target="NAwW4b3B6V8KvW6h2unZ-2" edge="1">
          <mxGeometry width="160" relative="1" as="geometry">
            <mxPoint x="90" y="400" as="sourcePoint" />
            <mxPoint x="210" y="380" as="targetPoint" />
          </mxGeometry>
        </mxCell>
        <mxCell id="NAwW4b3B6V8KvW6h2unZ-23" value="" style="endArrow=block;dashed=1;endFill=0;endSize=12;html=1;rounded=0;fontSize=12;curved=1;entryX=0;entryY=0.5;entryDx=0;entryDy=0;exitX=0.5;exitY=1;exitDx=0;exitDy=0;" parent="NAwW4b3B6V8KvW6h2unZ-30" source="NAwW4b3B6V8KvW6h2unZ-6" target="NAwW4b3B6V8KvW6h2unZ-2" edge="1">
          <mxGeometry width="160" relative="1" as="geometry">
            <mxPoint x="30" y="200" as="sourcePoint" />
            <mxPoint x="190" y="200" as="targetPoint" />
          </mxGeometry>
        </mxCell>
        <mxCell id="NAwW4b3B6V8KvW6h2unZ-24" value="" style="endArrow=block;dashed=1;endFill=0;endSize=12;html=1;rounded=0;fontSize=12;curved=1;entryX=0.5;entryY=0;entryDx=0;entryDy=0;exitX=0.5;exitY=1;exitDx=0;exitDy=0;" parent="NAwW4b3B6V8KvW6h2unZ-30" source="NAwW4b3B6V8KvW6h2unZ-4" target="NAwW4b3B6V8KvW6h2unZ-2" edge="1">
          <mxGeometry width="160" relative="1" as="geometry">
            <mxPoint x="210" y="150" as="sourcePoint" />
            <mxPoint x="350" y="240" as="targetPoint" />
          </mxGeometry>
        </mxCell>
        <mxCell id="NAwW4b3B6V8KvW6h2unZ-25" value="" style="endArrow=block;dashed=1;endFill=0;endSize=12;html=1;rounded=0;fontSize=12;curved=1;entryX=1;entryY=0.5;entryDx=0;entryDy=0;exitX=0.5;exitY=1;exitDx=0;exitDy=0;" parent="NAwW4b3B6V8KvW6h2unZ-30" source="NAwW4b3B6V8KvW6h2unZ-5" target="NAwW4b3B6V8KvW6h2unZ-2" edge="1">
          <mxGeometry width="160" relative="1" as="geometry">
            <mxPoint x="380" y="200" as="sourcePoint" />
            <mxPoint x="520" y="290" as="targetPoint" />
          </mxGeometry>
        </mxCell>
        <mxCell id="NAwW4b3B6V8KvW6h2unZ-26" value="" style="endArrow=open;endFill=1;endSize=12;html=1;rounded=0;fontSize=12;curved=1;entryX=0;entryY=0.5;entryDx=0;entryDy=0;exitX=1;exitY=0.5;exitDx=0;exitDy=0;" parent="NAwW4b3B6V8KvW6h2unZ-30" source="9hzGDvgMQgs1guY_c0qF-8" target="NAwW4b3B6V8KvW6h2unZ-7" edge="1">
          <mxGeometry width="160" relative="1" as="geometry">
            <mxPoint x="290" y="390" as="sourcePoint" />
            <mxPoint x="450" y="390" as="targetPoint" />
          </mxGeometry>
        </mxCell>
        <mxCell id="NAwW4b3B6V8KvW6h2unZ-28" value="&lt;font style=&quot;font-size: 22px;&quot;&gt;&lt;i&gt;&lt;b&gt;Builder&lt;/b&gt;&lt;/i&gt;&lt;/font&gt;" style="text;html=1;strokeColor=none;fillColor=none;align=center;verticalAlign=middle;whiteSpace=wrap;rounded=0;fontSize=16;" parent="NAwW4b3B6V8KvW6h2unZ-30" vertex="1">
          <mxGeometry x="110" y="10" width="135" height="30" as="geometry" />
        </mxCell>
        <mxCell id="NAwW4b3B6V8KvW6h2unZ-38" value="return" style="html=1;verticalAlign=bottom;endArrow=open;dashed=1;endSize=8;edgeStyle=elbowEdgeStyle;elbow=vertical;curved=0;rounded=0;fontSize=12;entryX=0.5;entryY=0;entryDx=0;entryDy=0;exitX=0.5;exitY=1;exitDx=0;exitDy=0;" parent="NAwW4b3B6V8KvW6h2unZ-30" target="NAwW4b3B6V8KvW6h2unZ-4" edge="1">
          <mxGeometry relative="1" as="geometry">
            <mxPoint x="285" y="-120" as="sourcePoint" />
            <mxPoint x="195" y="70" as="targetPoint" />
            <Array as="points">
              <mxPoint x="290" y="50" />
            </Array>
          </mxGeometry>
        </mxCell>
        <mxCell id="NAwW4b3B6V8KvW6h2unZ-31" value="" style="group" parent="1" vertex="1" connectable="0">
          <mxGeometry x="-480" y="760" width="590" height="355" as="geometry" />
        </mxCell>
        <mxCell id="9hzGDvgMQgs1guY_c0qF-2" value="Sign Up" style="rounded=1;whiteSpace=wrap;html=1;fontSize=16;" parent="NAwW4b3B6V8KvW6h2unZ-31" vertex="1">
          <mxGeometry y="170" width="100" height="40" as="geometry" />
        </mxCell>
        <mxCell id="9hzGDvgMQgs1guY_c0qF-4" value="User" style="ellipse;whiteSpace=wrap;html=1;fontSize=16;" parent="NAwW4b3B6V8KvW6h2unZ-31" vertex="1">
          <mxGeometry x="5" y="50" width="90" height="60" as="geometry" />
        </mxCell>
        <mxCell id="9hzGDvgMQgs1guY_c0qF-6" value="Log In" style="rounded=1;whiteSpace=wrap;html=1;fontSize=16;" parent="NAwW4b3B6V8KvW6h2unZ-31" vertex="1">
          <mxGeometry x="5" y="310" width="90" height="45" as="geometry" />
        </mxCell>
        <mxCell id="9hzGDvgMQgs1guY_c0qF-12" value="FirebaseAuth" style="rounded=1;whiteSpace=wrap;html=1;fontSize=16;" parent="NAwW4b3B6V8KvW6h2unZ-31" vertex="1">
          <mxGeometry x="445" y="160" width="120" height="60" as="geometry" />
        </mxCell>
        <mxCell id="9hzGDvgMQgs1guY_c0qF-13" value="FirebaseFirestore" style="rounded=1;whiteSpace=wrap;html=1;fontSize=16;" parent="NAwW4b3B6V8KvW6h2unZ-31" vertex="1">
          <mxGeometry x="420" y="295" width="170" height="60" as="geometry" />
        </mxCell>
        <mxCell id="NAwW4b3B6V8KvW6h2unZ-1" value="FirebaseManager" style="rounded=1;whiteSpace=wrap;html=1;fontSize=16;" parent="NAwW4b3B6V8KvW6h2unZ-31" vertex="1">
          <mxGeometry x="185" y="160" width="170" height="60" as="geometry" />
        </mxCell>
        <mxCell id="NAwW4b3B6V8KvW6h2unZ-13" style="edgeStyle=none;curved=1;rounded=0;orthogonalLoop=1;jettySize=auto;html=1;exitX=1;exitY=1;exitDx=0;exitDy=0;fontSize=12;startSize=8;endSize=8;" parent="NAwW4b3B6V8KvW6h2unZ-31" source="9hzGDvgMQgs1guY_c0qF-2" target="9hzGDvgMQgs1guY_c0qF-2" edge="1">
          <mxGeometry relative="1" as="geometry" />
        </mxCell>
        <mxCell id="NAwW4b3B6V8KvW6h2unZ-14" value="" style="endArrow=open;endFill=1;endSize=12;html=1;rounded=0;fontSize=12;curved=1;entryX=0.5;entryY=1;entryDx=0;entryDy=0;exitX=0.5;exitY=0;exitDx=0;exitDy=0;" parent="NAwW4b3B6V8KvW6h2unZ-31" source="9hzGDvgMQgs1guY_c0qF-2" target="9hzGDvgMQgs1guY_c0qF-4" edge="1">
          <mxGeometry width="160" relative="1" as="geometry">
            <mxPoint x="-225" y="240" as="sourcePoint" />
            <mxPoint x="-65" y="240" as="targetPoint" />
          </mxGeometry>
        </mxCell>
        <mxCell id="NAwW4b3B6V8KvW6h2unZ-15" value="" style="endArrow=open;endFill=1;endSize=12;html=1;rounded=0;fontSize=12;curved=1;entryX=0;entryY=0.5;entryDx=0;entryDy=0;exitX=1;exitY=0.5;exitDx=0;exitDy=0;" parent="NAwW4b3B6V8KvW6h2unZ-31" source="9hzGDvgMQgs1guY_c0qF-2" target="NAwW4b3B6V8KvW6h2unZ-1" edge="1">
          <mxGeometry width="160" relative="1" as="geometry">
            <mxPoint x="-155" y="200" as="sourcePoint" />
            <mxPoint x="-155" y="140" as="targetPoint" />
          </mxGeometry>
        </mxCell>
        <mxCell id="NAwW4b3B6V8KvW6h2unZ-16" value="" style="endArrow=open;endFill=1;endSize=12;html=1;rounded=0;fontSize=12;curved=1;entryX=0;entryY=1;entryDx=0;entryDy=0;exitX=1;exitY=0.5;exitDx=0;exitDy=0;" parent="NAwW4b3B6V8KvW6h2unZ-31" source="9hzGDvgMQgs1guY_c0qF-6" target="NAwW4b3B6V8KvW6h2unZ-1" edge="1">
          <mxGeometry width="160" relative="1" as="geometry">
            <mxPoint x="235" y="310" as="sourcePoint" />
            <mxPoint x="320" y="310" as="targetPoint" />
          </mxGeometry>
        </mxCell>
        <mxCell id="NAwW4b3B6V8KvW6h2unZ-17" value="" style="endArrow=open;endFill=1;endSize=12;html=1;rounded=0;fontSize=12;curved=1;entryX=0;entryY=0.5;entryDx=0;entryDy=0;exitX=1;exitY=0.5;exitDx=0;exitDy=0;" parent="NAwW4b3B6V8KvW6h2unZ-31" source="NAwW4b3B6V8KvW6h2unZ-1" target="9hzGDvgMQgs1guY_c0qF-12" edge="1">
          <mxGeometry width="160" relative="1" as="geometry">
            <mxPoint x="385" y="270" as="sourcePoint" />
            <mxPoint x="475" y="157" as="targetPoint" />
          </mxGeometry>
        </mxCell>
        <mxCell id="NAwW4b3B6V8KvW6h2unZ-18" value="" style="endArrow=open;endFill=1;endSize=12;html=1;rounded=0;fontSize=12;curved=1;entryX=0.5;entryY=0;entryDx=0;entryDy=0;exitX=1;exitY=1;exitDx=0;exitDy=0;" parent="NAwW4b3B6V8KvW6h2unZ-31" source="NAwW4b3B6V8KvW6h2unZ-1" target="9hzGDvgMQgs1guY_c0qF-13" edge="1">
          <mxGeometry width="160" relative="1" as="geometry">
            <mxPoint x="285" y="310" as="sourcePoint" />
            <mxPoint x="375" y="310" as="targetPoint" />
          </mxGeometry>
        </mxCell>
        <mxCell id="NAwW4b3B6V8KvW6h2unZ-27" value="&lt;font style=&quot;font-size: 22px;&quot;&gt;&lt;i&gt;&lt;b&gt;Singleton&lt;/b&gt;&lt;/i&gt;&lt;/font&gt;" style="text;html=1;strokeColor=none;fillColor=none;align=center;verticalAlign=middle;whiteSpace=wrap;rounded=0;fontSize=16;" parent="NAwW4b3B6V8KvW6h2unZ-31" vertex="1">
          <mxGeometry x="202.5" width="135" height="30" as="geometry" />
        </mxCell>
        <mxCell id="NAwW4b3B6V8KvW6h2unZ-33" style="edgeStyle=none;curved=1;rounded=0;orthogonalLoop=1;jettySize=auto;html=1;exitX=0;exitY=0.75;exitDx=0;exitDy=0;fontSize=12;startSize=8;endSize=8;" parent="1" source="NAwW4b3B6V8KvW6h2unZ-3" target="NAwW4b3B6V8KvW6h2unZ-3" edge="1">
          <mxGeometry relative="1" as="geometry" />
        </mxCell>
        <mxCell id="NAwW4b3B6V8KvW6h2unZ-34" value="Extends" style="endArrow=block;endSize=16;endFill=0;html=1;rounded=0;fontSize=12;curved=1;exitX=0.5;exitY=0;exitDx=0;exitDy=0;entryX=0.5;entryY=1;entryDx=0;entryDy=0;" parent="1" source="NAwW4b3B6V8KvW6h2unZ-8" target="NAwW4b3B6V8KvW6h2unZ-3" edge="1">
          <mxGeometry width="160" relative="1" as="geometry">
            <mxPoint x="60" y="150" as="sourcePoint" />
            <mxPoint x="130" y="45" as="targetPoint" />
          </mxGeometry>
        </mxCell>
        <mxCell id="NAwW4b3B6V8KvW6h2unZ-35" value="Extends" style="endArrow=block;endSize=16;endFill=0;html=1;rounded=0;fontSize=12;curved=1;exitX=0.5;exitY=0;exitDx=0;exitDy=0;entryX=1;entryY=1;entryDx=0;entryDy=0;" parent="1" source="NAwW4b3B6V8KvW6h2unZ-10" target="NAwW4b3B6V8KvW6h2unZ-3" edge="1">
          <mxGeometry width="160" relative="1" as="geometry">
            <mxPoint x="-20" y="60" as="sourcePoint" />
            <mxPoint x="50" y="-45" as="targetPoint" />
          </mxGeometry>
        </mxCell>
        <mxCell id="NAwW4b3B6V8KvW6h2unZ-36" value="Extends" style="endArrow=block;endSize=16;endFill=0;html=1;rounded=0;fontSize=12;curved=1;exitX=0.5;exitY=0;exitDx=0;exitDy=0;entryX=0;entryY=1;entryDx=0;entryDy=0;" parent="1" source="NAwW4b3B6V8KvW6h2unZ-9" target="NAwW4b3B6V8KvW6h2unZ-3" edge="1">
          <mxGeometry width="160" relative="1" as="geometry">
            <mxPoint x="-410" as="sourcePoint" />
            <mxPoint x="-340" y="-105" as="targetPoint" />
          </mxGeometry>
        </mxCell>
        <mxCell id="NAwW4b3B6V8KvW6h2unZ-37" value="return" style="html=1;verticalAlign=bottom;endArrow=open;dashed=1;endSize=8;edgeStyle=elbowEdgeStyle;elbow=vertical;curved=0;rounded=0;fontSize=12;entryX=0.5;entryY=0;entryDx=0;entryDy=0;exitX=0.5;exitY=1;exitDx=0;exitDy=0;" parent="1" source="NAwW4b3B6V8KvW6h2unZ-9" target="NAwW4b3B6V8KvW6h2unZ-6" edge="1">
          <mxGeometry relative="1" as="geometry">
            <mxPoint x="-510" y="250" as="sourcePoint" />
            <mxPoint x="-590" y="250" as="targetPoint" />
          </mxGeometry>
        </mxCell>
        <mxCell id="NAwW4b3B6V8KvW6h2unZ-39" value="return" style="html=1;verticalAlign=bottom;endArrow=open;dashed=1;endSize=8;edgeStyle=elbowEdgeStyle;elbow=vertical;curved=0;rounded=0;fontSize=12;entryX=0.5;entryY=0;entryDx=0;entryDy=0;exitX=0.5;exitY=1;exitDx=0;exitDy=0;" parent="1" source="NAwW4b3B6V8KvW6h2unZ-10" target="NAwW4b3B6V8KvW6h2unZ-5" edge="1">
          <mxGeometry relative="1" as="geometry">
            <mxPoint x="120" y="270" as="sourcePoint" />
            <mxPoint x="120" y="450" as="targetPoint" />
          </mxGeometry>
        </mxCell>
      </root>
    </mxGraphModel>
  </diagram>
</mxfile>
